<?xml version="1.0" encoding="iso-8859-1"?>
<!-- Generator: Adobe Illustrator 19.0.0, SVG Export Plug-In . SVG Version: 6.00 Build 0)  -->
<svg version="1.1" id="Capa_1" xmlns="http://www.w3.org/2000/svg" xmlns:xlink="http://www.w3.org/1999/xlink" x="0px" y="0px"
	 viewBox="0 0 512 512" style="enable-background:new 0 0 512 512;" xml:space="preserve">
<g>
	<g>
		<path d="M478.773,73.771C476.875,69.333,472.075,64,460.149,64c-20.779,0-46.869,13.333-67.883,24.064
			c-6.016,3.093-13.568,6.933-18.88,9.216c-4.544-17.536-19.264-43.797-34.005-52.053C331.125,26.005,298.144,0,278.816,0
			c-9.771,0-16.981,2.773-22.08,6.357C251.659,2.773,244.448,0,234.677,0c-19.776,0-53.611,26.048-62.037,45.291
			c-14.4,8.256-28.352,34.283-32.64,51.947c-5.333-2.304-12.8-6.123-18.773-9.173C100.213,77.333,74.123,64,53.344,64
			c-11.925,0-16.704,5.333-18.624,9.771c-5.568,12.907,8.277,27.563,27.435,47.872c8.256,8.747,22.08,23.381,23.189,27.691
			c0,20.032,39.147,45.525,65.323,60.331c3.371,13.739,14.059,50.347,35.072,65.621c23.701,17.259,52.693,23.381,70.272,23.381
			c19.712,0,49.536-7.232,71.744-23.381c20.992-15.275,31.68-51.904,35.072-65.621c26.197-14.805,65.344-40.256,65.301-59.733
			c1.152-4.907,14.976-19.563,23.232-28.309C470.517,101.333,484.341,86.677,478.773,73.771z M299.104,93.077l12.139-42.667
			c1.6-5.675,7.424-9.024,13.163-7.339c5.675,1.621,8.96,7.509,7.339,13.184l-12.139,42.667c-1.344,4.693-5.611,7.744-10.261,7.744
			c-0.96,0-1.941-0.128-2.923-0.405C300.768,104.64,297.461,98.752,299.104,93.077z M189.429,42.987
			c5.589-1.515,11.499,2.027,12.928,7.765l10.667,42.667c1.408,5.717-2.048,11.499-7.765,12.928c-0.853,0.213-1.728,0.32-2.581,0.32
			c-4.8,0-9.152-3.221-10.347-8.085l-10.667-42.667C180.235,50.219,183.691,44.416,189.429,42.987z M224.011,170.667h-21.333
			c-5.888,0-10.667-4.779-10.667-10.667s4.779-10.667,10.667-10.667h21.333c5.888,0,10.667,4.779,10.667,10.667
			S229.899,170.667,224.011,170.667z M242.229,135.552c-4.16,4.16-10.923,4.16-15.083,0c-7.189-7.168-15.061-8.469-25.6-4.16
			c-9.664,3.925-20.757,12.245-33.984,25.493c-2.091,2.069-4.821,3.115-7.552,3.115s-5.461-1.045-7.552-3.115
			c-4.16-4.16-4.16-10.923,0-15.083c15.275-15.275,28.693-25.152,41.024-30.165c18.496-7.552,35.371-4.523,48.725,8.832
			C246.389,124.629,246.389,131.371,242.229,135.552z M256.011,117.333c-5.888,0-10.667-4.779-10.667-10.667V21.333
			c0-5.888,4.779-10.667,10.667-10.667c5.888,0,10.667,4.779,10.667,10.667v85.333C266.677,112.555,261.899,117.333,256.011,117.333
			z M309.344,170.667h-21.333c-5.888,0-10.667-4.779-10.667-10.667s4.779-10.667,10.667-10.667h21.333
			c5.888,0,10.667,4.779,10.667,10.667S315.232,170.667,309.344,170.667z M359.563,156.885c-2.091,2.069-4.821,3.115-7.552,3.115
			c-2.731,0-5.461-1.045-7.552-3.115c-13.227-13.227-24.341-21.568-33.984-25.493c-10.539-4.288-18.411-3.008-25.6,4.16
			c-4.16,4.16-10.923,4.16-15.083,0c-4.16-4.16-4.16-10.923,0-15.083c13.355-13.355,30.229-16.384,48.725-8.832
			c12.331,5.013,25.749,14.891,41.024,30.165C363.723,145.963,363.723,152.704,359.563,156.885z"/>
	</g>
</g>
<g>
	<g>
		<path d="M218.187,454.272c-28.032-44.949-69.419-101.056-87.36-113.323c-0.939-0.64-1.984-1.131-3.072-1.451
			c-10.496-3.029-19.52-7.04-27.52-12.245c-3.84-2.475-8.875-2.283-12.48,0.619L68,343.659c-1.728,1.387-2.987,3.264-3.584,5.397
			L21.749,498.389c-0.917,3.221-0.299,6.677,1.728,9.344c2.027,2.688,5.184,4.267,8.533,4.267h98.667
			c-11.904-33.963-33.195-92.971-43.968-112.107c-2.901-5.141-1.067-11.627,4.053-14.528c5.099-2.88,11.627-1.067,14.528,4.075
			c12.48,22.187,36.629,89.92,47.979,122.56h81.408v-44.629C227.957,464.981,222.048,460.48,218.187,454.272z"/>
	</g>
</g>
<g>
	<g>
		<path d="M490.251,498.411l-42.667-149.333c-0.597-2.133-1.856-4.011-3.584-5.397l-19.776-15.829
			c-3.584-2.88-8.619-3.115-12.48-0.619c-8.32,5.397-17.557,9.493-28.309,12.501c-0.789,0.235-1.557,0.555-2.283,0.939
			c-21.248,11.819-78.699,76.608-110.848,116.672c-3.755,4.693-8.448,7.829-14.293,9.771V512h81.387
			c11.349-32.661,35.499-100.373,47.979-122.56c2.901-5.163,9.387-6.976,14.528-4.075c5.141,2.901,6.955,9.387,4.053,14.528
			c-10.752,19.136-32.043,78.144-43.947,112.107h120c3.349,0,6.507-1.579,8.512-4.245
			C490.549,505.088,491.168,501.632,490.251,498.411z"/>
	</g>
</g>
<g>
	<g>
		<path d="M393.888,232.341c-2.645-2.261-6.251-3.072-9.664-2.197c-3.371,0.896-6.101,3.413-7.296,6.699
			c-6.443,17.941-18.005,42.176-36.608,55.701C312.459,312.789,278.517,320,256.011,320c-21.781,0-54.976-7.211-82.837-27.456
			c-18.859-13.717-30.507-38.379-36.949-56.64c-1.173-3.285-3.861-5.803-7.211-6.72c-3.371-0.939-6.955-0.171-9.643,2.048
			c-19.989,16.491-29.675,36.608-25.92,53.803c2.453,11.264,11.819,26.389,42.475,34.603
			c19.392,5.184,70.379,75.243,100.373,123.349c1.813,2.944,4.949,4.8,8.427,4.992c0.192,0.021,0.405,0.021,0.619,0.021
			c3.221,0,6.293-1.451,8.32-3.989c36.181-45.099,101.44-118.741,122.432-124.373c30.485-8.149,39.872-23.147,42.411-34.304
			C422.304,268.544,413.109,248.747,393.888,232.341z"/>
	</g>
</g>
<g>
</g>
<g>
</g>
<g>
</g>
<g>
</g>
<g>
</g>
<g>
</g>
<g>
</g>
<g>
</g>
<g>
</g>
<g>
</g>
<g>
</g>
<g>
</g>
<g>
</g>
<g>
</g>
<g>
</g>
</svg>
